# File created by Blade
# Date/Time:  Thu Sep 25 19:04:16 2014
# Frame Rate: 120.000 fps
#------------------------------------------------------
:FULLY-SPECIFIED
:DEGREES
665
root -1.349024 30.380837 -8.526784 54.251597 25.027386 -17.072525
Spine 12.313249 -4.456148 -16.905817
Head -45.328795 -9.664209 18.467057
LeftShoulder -7.927929 11.032360 27.739698
LeftArm 18.629616 -21.149639 -36.036310
LeftForeArm 9.728824 0.000000 20.409318
LeftHand -30.094711 0.000000 10.529974
LeftHandThumb1 -26.253704 0.000000 33.147579
RightShoulder -15.107347 16.034057 -39.497120
RightArm -21.479019 -13.607147 44.521768
RightForeArm -11.327828 -0.000000 13.621163
RightHand -13.839160 -0.000000 0.870299
RightHandThumb1 -24.326973 -0.000000 -32.862282
LeftUpLeg -69.965348 30.419436 21.795408
LeftLeg -4.136505 -0.000000 0.000000
LeftFoot 8.247885 5.979755 -34.971717
LeftToeBase 10.635534 -0.000000 -0.000000
RightUpLeg -55.621594 -14.886538 15.338294
RightLeg -1.039750 -0.000000 0.000000
RightFoot -1.916195 -17.567661 18.710503
RightToeBase 4.858400 -0.000000 -0.000000
666
root -1.261059 30.388901 -8.536679 54.469507 25.147584 -16.333457
Spine 12.141630 -3.910652 -16.380687
Head -44.976824 -9.407902 18.061560
LeftShoulder -8.030656 11.217765 27.586405
LeftArm 18.721624 -20.937047 -36.123177
LeftForeArm 9.758312 -0.000000 20.288825
LeftHand -30.057188 -0.000000 10.765723
LeftHandThumb1 -26.253704 0.000000 33.147579
RightShoulder -14.890619 16.305998 -39.556660
RightArm -20.591517 -13.688855 44.334162
RightForeArm -11.065030 -0.000000 13.703449
RightHand -13.689572 -0.000000 0.425140
RightHandThumb1 -24.326973 -0.000000 -32.862282
LeftUpLeg -70.113984 29.640777 21.366269
LeftLeg -4.113668 -0.000000 0.000000
LeftFoot 8.226893 5.912853 -34.868710
LeftToeBase 10.477493 -0.000000 -0.000000
RightUpLeg -55.616766 -15.531002 14.831604
RightLeg -1.056122 -0.000000 0.000000
RightFoot -1.939287 -17.728188 18.860523
RightToeBase 4.884958 -0.000000 -0.000000
667
root -1.171534 30.396776 -8.547465 54.719857 25.235109 -15.590037
Spine 11.929728 -3.330655 -15.895367
Head -44.591353 -9.230044 17.619447
LeftShoulder -8.145632 11.441653 27.397453
LeftArm 18.775930 -20.543808 -36.005078
LeftForeArm 9.584170 -0.000000 20.229110
LeftHand -30.160755 -0.000000 10.677048
LeftHandThumb1 -26.253704 0.000000 33.147579
RightShoulder -14.658642 16.633677 -39.577263
RightArm -19.738069 -13.717420 44.094323
RightForeArm -10.950641 -0.000000 13.791499
RightHand -13.589745 -0.000000 0.117916
RightHandThumb1 -24.326973 -0.000000 -32.862282
LeftUpLeg -70.326326 28.930190 20.786901
LeftLeg -4.157401 -0.000000 0.000000
LeftFoot 8.281119 5.859270 -34.882523
LeftToeBase 10.645402 -0.000000 -0.000000
RightUpLeg -55.559584 -16.104393 14.210359
RightLeg -1.174038 -0.000000 0.000000
RightFoot -1.920009 -17.973329 19.045247
RightToeBase 4.899531 -0.000000 -0.000000
668
root -1.084054 30.401004 -8.552340 54.950363 25.380388 -14.864496
Spine 11.725477 -2.748230 -15.338902
Head -44.205574 -8.982822 17.281452
LeftShoulder -8.222331 11.753811 27.269089
LeftArm 18.870703 -20.285088 -36.025334
LeftForeArm 9.541308 0.000000 20.098723
LeftHand -30.021267 -0.000000 10.682282
LeftHandThumb1 -26.253704 0.000000 33.147579
RightShoulder -14.425689 16.984103 -39.577175
RightArm -18.872647 -13.680892 43.822774
RightForeArm -10.776238 -0.000000 13.872278
RightHand -13.414634 0.000000 -0.285919
RightHandThumb1 -24.326973 -0.000000 -32.862282
LeftUpLeg -70.497440 28.184620 20.342850
LeftLeg -4.143823 -0.000000 0.000000
LeftFoot 8.270279 5.734738 -34.852087
LeftToeBase 10.571132 -0.000000 -0.000000
RightUpLeg -55.776365 -16.970109 14.112676
RightLeg -0.944589 -0.000000 0.000000
RightFoot -1.927769 -17.812562 18.890658
RightToeBase 4.920204 -0.000000 -0.000000
669
root -0.993593 30.406569 -8.560942 55.151241 25.495717 -14.156473
Spine 11.598633 -2.146769 -14.787645
Head -43.887707 -8.660199 16.889104
LeftShoulder -8.396119 11.925947 27.119511
LeftArm 19.026490 -20.131444 -36.116337
LeftForeArm 9.788869 -0.000000 19.923276
LeftHand -30.154069 -0.000000 10.635370
LeftHandThumb1 -26.253704 0.000000 33.147579
RightShoulder -14.243886 17.293245 -39.605649
RightArm -17.891632 -13.585937 43.580306
RightForeArm -10.681899 -0.000000 13.978626
RightHand -13.360544 0.000000 -0.843906
RightHandThumb1 -24.326973 -0.000000 -32.862282
LeftUpLeg -70.599534 27.451391 19.933691
LeftLeg -4.152528 -0.000000 0.000000
LeftFoot 8.259675 5.594966 -34.828825
LeftToeBase 10.588659 -0.000000 -0.000000
RightUpLeg -55.809979 -17.674901 13.745152
RightLeg -0.886089 -0.000000 0.000000
RightFoot -1.924384 -17.865490 18.918538
RightToeBase 4.947122 -0.000000 -0.000000
670
root -0.904037 30.412862 -8.571081 55.331794 25.539319 -13.398133
Spine 11.438096 -0.898530 -14.468551
Head -43.325739 -8.655617 17.161865
LeftShoulder -7.822847 12.231151 27.626142
LeftArm 19.107909 -20.037814 -36.485358
LeftForeArm 9.801188 -0.000000 20.006819
LeftHand -30.455676 -0.000000 10.853655
LeftHandThumb1 -26.253704 0.000000 33.147579
RightShoulder -14.244135 17.116361 -39.167697
RightArm -16.850841 -13.565778 43.035918
RightForeArm -10.405187 0.000000 13.990636
RightHand -13.115879 -0.000000 -1.026199
RightHandThumb1 -24.326973 -0.000000 -32.862282
LeftUpLeg -70.633082 26.696337 19.480606
LeftLeg -4.184731 -0.000000 0.000000
LeftFoot 8.276387 5.535221 -34.804535
LeftToeBase 10.582050 -0.000000 -0.000000
RightUpLeg -55.742479 -18.334228 13.174785
RightLeg -0.878246 -0.000000 0.000000
RightFoot -1.941360 -17.944059 19.086028
RightToeBase 4.972272 -0.000000 -0.000000
671
root -0.815364 30.418076 -8.574967 55.537722 25.611386 -12.662814
Spine 11.367713 0.376140 -14.117794
Head -43.160969 -8.494565 17.516137
LeftShoulder -7.495984 12.334434 28.184513
LeftArm 19.415627 -19.991640 -37.086209
LeftForeArm 10.174952 -0.000000 19.990818
LeftHand -30.651665 -0.000000 11.138066
LeftHandThumb1 -26.253704 0.000000 33.147579
RightShoulder -14.550063 16.985771 -38.714906
RightArm -15.584164 -13.699476 42.431233
RightForeArm -10.131505 -0.000000 13.951354
RightHand -12.763221 -0.000000 -1.213170
RightHandThumb1 -24.326973 -0.000000 -32.862282
LeftUpLeg -70.697449 25.959237 19.045030
LeftLeg -4.208624 -0.000000 0.000000
LeftFoot 8.264725 5.461837 -34.798267
LeftToeBase 10.539116 -0.000000 -0.000000
RightUpLeg -55.697049 -19.004000 12.696890
RightLeg -0.890581 -0.000000 0.000000
RightFoot -1.942277 -18.042223 19.164070
RightToeBase 4.991738 -0.000000 -0.000000
672
root -0.726091 30.422189 -8.583923 55.718099 25.787485 -12.002247
Spine 11.255116 0.863629 -13.400212
Head -42.743714 -8.178996 16.833589
LeftShoulder -7.786654 12.406963 27.901425
LeftArm 19.419820 -19.214898 -36.792977
LeftForeArm 9.944248 -0.000000 19.704187
LeftHand -30.529252 -0.000000 11.370160
LeftHandThumb1 -26.253704 0.000000 33.147579
RightShoulder -14.135299 17.420775 -38.824531
RightArm -14.709161 -13.501443 42.306963
RightForeArm -10.001314 -0.000000 14.009648
RightHand -12.489173 -0.000000 -1.950518
RightHandThumb1 -24.326973 -0.000000 -32.862282
LeftUpLeg -70.827801 25.263413 18.627616
LeftLeg -4.216519 -0.000000 0.000000
LeftFoot 8.326384 5.244758 -34.791010
LeftToeBase 10.564707 -0.000000 -0.000000
RightUpLeg -55.653593 -19.687082 12.355218
RightLeg -0.906998 -0.000000 0.000000
RightFoot -1.891529 -18.139145 19.217740
RightToeBase 5.027930 -0.000000 -0.000000
673
root -0.639547 30.425238 -8.597013 55.918167 25.962199 -11.335725
Spine 11.144425 1.274510 -12.662824
Head -42.324708 -7.846025 16.025768
LeftShoulder -8.038945 12.825610 27.531310
LeftArm 19.400704 -18.566774 -36.389741
LeftForeArm 9.726459 -0.000000 19.491251
LeftHand -30.447152 -0.000000 11.522562
LeftHandThumb1 -26.253704 0.000000 33.147579
RightShoulder -13.598472 17.675866 -38.937276
RightArm -13.785456 -13.059428 42.211904
RightForeArm -10.297543 -0.000000 14.225918
RightHand -12.406463 -0.000000 -2.348535
RightHandThumb1 -24.326973 -0.000000 -32.862282
LeftUpLeg -71.000254 24.553994 18.223711
LeftLeg -4.175847 -0.000000 0.000000
LeftFoot 8.362109 5.097583 -34.776555
LeftToeBase 10.540621 -0.000000 -0.000000
RightUpLeg -55.622346 -20.339540 11.974728
RightLeg -0.907474 -0.000000 0.000000
RightFoot -1.865460 -18.296818 19.282207
RightToeBase 5.041787 -0.000000 -0.000000
674
root -0.550959 30.428439 -8.609142 56.121335 26.083220 -10.636669
Spine 11.049855 1.989809 -12.035971
Head -41.919346 -7.646705 15.445790
LeftShoulder -7.974982 13.401234 27.394817
LeftArm 19.467169 -18.351896 -36.220513
LeftForeArm 9.384583 -0.000000 19.469102
LeftHand -30.507405 0.000000 11.584957
LeftHandThumb1 -26.253704 0.000000 33.147579
RightShoulder -13.303623 17.975125 -38.990574
RightArm -12.826200 -13.065370 42.116240
RightForeArm -10.098379 -0.000000 14.191442
RightHand -12.348738 -0.000000 -2.779806
RightHandThumb1 -24.326973 -0.000000 -32.862282
LeftUpLeg -71.062826 23.795058 17.905880
LeftLeg -4.183321 -0.000000 0.000000
LeftFoot 8.312864 5.087470 -34.707586
LeftToeBase 10.586489 -0.000000 -0.000000
RightUpLeg -55.537943 -20.956840 11.471290
RightLeg -0.932190 -0.000000 0.000000
RightFoot -1.862276 -18.506693 19.369411
RightToeBase 5.071931 -0.000000 -0.000000
675
root -0.456182 30.432757 -8.622059 56.362691 26.204843 -9.909791
Spine 10.954990 2.704520 -11.472452
Head -41.522655 -7.385429 15.098781
LeftShoulder -8.040953 13.270072 27.520664
LeftArm 19.336250 -17.384809 -36.123460
LeftForeArm 9.259936 0.000000 19.356541
LeftHand -30.662392 -0.000000 11.832636
LeftHandThumb1 -26.253704 0.000000 33.147579
RightShoulder -12.944489 18.398007 -38.792164
RightArm -11.984961 -13.085010 41.803812
RightForeArm -9.968652 -0.000000 14.238758
RightHand -12.094918 -0.000000 -3.209222
RightHandThumb1 -24.326973 -0.000000 -32.862282
LeftUpLeg -71.159723 23.020111 17.524185
LeftLeg -4.207831 -0.000000 0.000000
LeftFoot 8.292006 5.055001 -34.595659
LeftToeBase 10.530092 -0.000000 -0.000000
RightUpLeg -55.523111 -21.646375 11.033766
RightLeg -0.911264 -0.000000 0.000000
RightFoot -1.843292 -18.625348 19.466442
RightToeBase 5.120961 -0.000000 -0.000000
676
root -0.368629 30.433877 -8.636557 56.616858 26.378545 -9.179398
Spine 10.866522 3.369505 -10.816932
Head -41.090250 -7.181673 14.678362
LeftShoulder -8.109595 13.531063 27.511208
LeftArm 19.394196 -16.711734 -35.955943
LeftForeArm 8.605957 -0.000000 19.258313
LeftHand -30.559826 -0.000000 12.134871
LeftHandThumb1 -26.253704 0.000000 33.147579
RightShoulder -12.564273 18.887589 -38.714359
RightArm -11.214722 -13.170491 41.596945
RightForeArm -9.758552 -0.000000 14.293442
RightHand -11.951911 0.000000 -3.573960
RightHandThumb1 -24.326973 -0.000000 -32.862282
LeftUpLeg -71.289909 22.236499 17.162812
LeftLeg -4.243415 -0.000000 0.000000
LeftFoot 8.330403 5.012323 -34.493812
LeftToeBase 10.511543 -0.000000 -0.000000
RightUpLeg -55.506849 -22.359820 10.641823
RightLeg -0.906294 -0.000000 0.000000
RightFoot -1.845037 -18.726431 19.544291
RightToeBase 5.154890 -0.000000 -0.000000
677
root -0.279878 30.437866 -8.651646 56.924310 26.547428 -8.457070
Spine 10.722785 4.024586 -10.176001
Head -40.668003 -6.945603 14.434448
LeftShoulder -8.263703 13.873094 27.478689
LeftArm 19.574592 -15.967593 -35.743675
LeftForeArm 8.016157 -0.000000 19.177448
LeftHand -30.747850 -0.000000 11.665073
LeftHandThumb1 -26.253704 0.000000 33.147579
RightShoulder -12.149113 19.270498 -38.572792
RightArm -10.269456 -13.247505 41.392334
RightForeArm -9.528990 -0.000000 14.151358
RightHand -11.711404 -0.000000 -3.909463
RightHandThumb1 -24.326973 -0.000000 -32.862282
LeftUpLeg -71.501076 21.484347 16.725144
LeftLeg -4.257352 -0.000000 0.000000
LeftFoot 8.381544 4.941683 -34.303009
LeftToeBase 10.532475 -0.000000 -0.000000
RightUpLeg -55.583285 -23.084914 10.332913
RightLeg -0.870291 -0.000000 0.000000
RightFoot -1.801498 -18.829502 19.687348
RightToeBase 5.038819 -0.000000 -0.000000
